F1 : Grand Prix - China - Free Practice 2
 
Source : BBC 2 
   
Date: Friday 12th April 2013 

Time: 06:55 to 08:35 (1 hour and 40 minutes long)


 Chinese Grand Prix - Practice 2.

 Continued coverage from the Shanghai International Circuit as the 11 constructors and their drivers continue to get to grips with their new surroundings. 

Capped by :- Hannibal

Technical Information:


Video
ID                             : 0
Format                         : MPEG-4 Visual
Format profile                 : Advanced Simple@L5
Format settings, BVOP          : 2
Format settings, QPel          : No
Format settings, GMC           : No warppoints
Format settings, Matrix        : Default (H.263)
Muxing mode                    : Packed bitstream
Codec ID                       : XVID
Codec ID/Hint                  : XviD
Duration                       : 1h 39mn
Bit rate                       : 1 204 Kbps
Width                          : 608 pixels
Height                         : 336 pixels
Display aspect ratio           : 16:9
Frame rate                     : 25.000 fps
Color space                    : YUV
Chroma subsampling             : 4:2:0
Bit depth                      : 8 bits
Scan type                      : Progressive
Compression mode               : Lossy
Bits/(Pixel*Frame)             : 0.236
Stream size                    : 853 MiB (90%)
Writing library                : XviD 1.2.1 (UTC 2008-12-04)

Audio
ID                             : 1
Format                         : MPEG Audio
Format version                 : Version 1
Format profile                 : Layer 3
Mode                           : Joint stereo
Mode extension                 : MS Stereo
Codec ID                       : 55
Codec ID/Hint                  : MP3
Duration                       : 1h 39mn
Bit rate mode                  : Constant
Bit rate                       : 128 Kbps
Channel(s)                     : 2 channels
Sampling rate                  : 48.0 KHz
Compression mode               : Lossy
Stream size                    : 90.7 MiB (10%)
Alignment                      : Aligned on interleaves
Interleave, duration           : 40 ms (1.00 video frame)
Interleave, preload duration   : 480 ms



Screens:
 
http://i.imgur.com/FM2JwHr.jpg
 
http://i.imgur.com/rXJwptx.jpg

